Coordinates
version=1
nRows=16
nColumns=36
inDegrees=yes

Units are S.I. units (second, meters, Newtons, ...)
If the header above contains a line with 'inDegrees', this indicates whether rotational values are in degrees (yes) or radians (no).

endheader
time	pelvis_tilt	pelvis_list	pelvis_rotation	pelvis_tx	pelvis_ty	pelvis_tz	hip_flexion_r	hip_adduction_r	hip_rotation_r	knee_angle_r	knee_angle_r_beta	ankle_angle_r	subtalar_angle_r	mtp_angle_r	hip_flexion_l	hip_adduction_l	hip_rotation_l	knee_angle_l	knee_angle_l_beta	ankle_angle_l	subtalar_angle_l	mtp_angle_l	lumbar_extension	lumbar_bending	lumbar_rotation	arm_flex_r	arm_add_r	arm_rot_r	elbow_flex_r	pro_sup_r	arm_flex_l	arm_add_l	arm_rot_l	elbow_flex_l	pro_sup_l
      1.11000000	    -20.83415070	     -1.63979248	      2.16890703	     -0.44988483	      1.26181961	     -0.60513751	     33.66649545	     -1.25434042	     -6.28444432	      6.32864070	      0.11045562	    -31.74361315	      2.64370990	     -6.09730281	     37.76100442	     -3.41578433	     -6.10270774	     13.07240793	      0.22815656	    -29.55382413	      4.35344331	     -6.09730281	    -12.92656675	      3.39256135	     -4.13627384	    -50.21221506	    -11.14753981	    -14.90363836	     48.30087603	    105.80414300	    -50.63824186	    -12.77929910	     -8.06531956	     60.23203638	    108.22661475
      1.12000000	    -20.89633855	     -1.61198339	      2.09977590	     -0.44045885	      1.24361158	     -0.60534523	     34.53118433	     -1.41292714	     -5.92158173	      6.68841875	      0.11673493	    -31.93706408	      1.91601258	     -6.24599519	     38.41207720	     -3.57436512	     -6.37274345	     12.90994615	      0.22532107	    -29.64169477	      5.67923253	     -6.24599519	    -13.14860915	      3.35599345	     -4.02018269	    -51.08758210	    -10.58424314	    -14.80294804	     48.08309136	    109.08166328	    -50.98434783	    -12.51853378	     -7.90525014	     59.90054569	    112.54304660
      1.13000000	    -20.87678716	     -1.58849445	      2.07775373	     -0.43108675	      1.22465376	     -0.60569257	     35.39306939	     -1.62024147	     -5.67791769	      7.36881951	      0.12861016	    -31.90865635	      0.97687110	     -6.43713318	     38.98747960	     -3.67070996	     -6.26605489	     12.81038372	      0.22358337	    -29.90505476	      6.02097534	     -6.43713318	    -13.49027997	      3.33847996	     -3.99274730	    -51.84686301	    -10.02802476	    -14.44792164	     48.08329392	    109.15284957	    -51.26532727	    -12.12829893	     -7.50477451	     59.97188678	    112.53353073
      1.14000000	    -20.80137171	     -1.56843389	      2.09649932	     -0.42172774	      1.20486979	     -0.60616184	     36.29635382	     -1.87006216	     -5.45211839	      8.42427452	      0.14703133	    -31.69491715	     -0.65205249	     -6.60573030	     39.58038972	     -3.75213322	     -6.07950718	     12.95688654	      0.22614033	    -30.01081956	      5.86795112	     -6.60573030	    -13.90581072	      3.34197045	     -3.93153236	    -52.51844565	     -9.46983563	    -13.80166484	     48.12267885	    106.68995268	    -51.38418790	    -11.86175155	     -6.78065489	     60.05495875	    110.97732850
      1.15000000	    -20.70447094	     -1.56622295	      2.14640857	     -0.41258694	      1.18403677	     -0.60680404	     37.31801110	     -2.14051456	     -5.22086095	      9.85832231	      0.17206018	    -31.48874480	     -2.50036988	     -6.66125007	     40.36864083	     -3.83313487	     -5.87015076	     13.64513406	      0.23815252	    -29.68717160	      5.19106374	     -6.66125007	    -14.36652062	      3.38538466	     -3.84584663	    -53.17208351	     -8.80241610	    -13.61983387	     48.20862545	    107.20901634	    -51.41312373	    -11.52638933	     -6.39923176	     60.08994294	    111.28436356
      1.16000000	    -20.57748590	     -1.53531654	      2.17745019	     -0.40348373	      1.16230732	     -0.60745840	     38.40387299	     -2.43149558	     -4.92779230	     11.58843218	      0.20225630	    -31.36762520	     -4.24710570	     -6.71691453	     41.21742264	     -3.90447190	     -5.78442480	     14.61968891	      0.25516171	    -29.51627394	      4.38992713	     -6.71691453	    -14.84723489	      3.39088188	     -3.82100907	    -53.68024686	     -8.15848568	    -13.48800609	     48.23018567	    107.48120613	    -51.37352862	    -11.16729922	     -5.90481704	     60.06688399	    111.44774944
      1.17000000	    -20.37315891	     -1.50397044	      2.25453569	     -0.39452870	      1.13978106	     -0.60808659	     39.53587836	     -2.75728134	     -4.66559163	     13.74874967	      0.23996095	    -31.21813078	     -5.97597613	     -6.77369078	     42.16387797	     -3.98792676	     -5.80919567	     16.03667030	      0.27989270	    -29.22923697	      3.68658113	     -6.77369078	    -15.47218645	      3.40412018	     -3.84813444	    -53.96744638	     -7.53155870	    -13.20392671	     48.19987603	    107.45140663	    -51.17938788	    -10.75086059	     -5.70353006	     60.12932095	    111.14219117
      1.18000000	    -20.06119557	     -1.47633810	      2.40285259	     -0.38563403	      1.11640429	     -0.60876457	     40.65602455	     -3.14129731	     -4.54020835	     16.26180955	      0.28382212	    -30.76584653	     -7.51150342	     -6.85947699	     43.18989171	     -4.08407509	     -5.85909498	     17.95230930	      0.31332691	    -28.49485666	      3.57159209	     -6.85947699	    -16.24737733	      3.42425037	     -3.92264269	    -54.11378972	     -6.92308696	    -12.93032784	     48.06577023	    108.39337250	    -50.84100564	    -10.33180083	     -5.81423568	     60.16598676	    111.13000783
      1.19000000	    -19.76064051	     -1.47577259	      2.39286485	     -0.37678984	      1.09213212	     -0.60922542	     41.88356416	     -3.36377155	     -4.18472916	     18.86492379	      0.32925503	    -30.69405996	     -8.61401942	     -6.89896308	     44.26318263	     -4.29649800	     -6.00398545	     19.92558766	      0.34776711	    -28.40866154	      3.65757867	     -6.89896308	    -17.03089180	      3.42690297	     -3.81484971	    -54.04130025	     -6.41328883	    -12.34064819	     47.83091656	    107.66556932	    -50.37856157	    -10.10220131	     -5.29329956	     60.24387136	    110.12614808
      1.20000000	    -19.41718565	     -1.62559941	      2.42611547	     -0.36823224	      1.06707918	     -0.60963586	     43.15098943	     -3.46664681	     -4.07409165	     21.82121737	      0.38085209	    -29.94645639	     -9.13351444	     -6.98882291	     45.47700456	     -4.63420382	     -6.02248890	     22.07758830	      0.38532661	    -29.16601249	      4.02339796	     -6.98882291	    -17.92273280	      3.60465083	     -3.67140698	    -53.83205297	     -5.89685696	    -12.01690915	     47.55079567	    109.56326026	    -49.70018497	     -9.80124122	     -5.06168811	     60.00801268	    111.38294943
      1.21000000	    -19.05681916	     -1.82883671	      2.46495089	     -0.36014342	      1.04140638	     -0.61002563	     44.65624917	     -3.58469598	     -4.48910720	     26.23010922	      0.45780177	    -26.17906611	     -9.67248570	     -7.03295036	     46.78696261	     -5.04552955	     -5.93551627	     25.08362251	      0.43779180	    -27.88340216	      3.81571284	     -7.03295036	    -18.95495522	      3.87109695	     -3.43156819	    -53.48320667	     -5.36165211	    -11.47928140	     47.69190751	    106.88937011	    -48.78411951	     -9.50061882	     -4.70062268	     60.15757241	    108.59132266
      1.22000000	    -19.18112778	     -1.60351754	      2.48131480	     -0.35278164	      1.01402646	     -0.61030862	     47.16549214	     -4.11069175	     -4.47522439	     32.90534528	      0.57430662	    -15.99314389	     -9.10487759	     -7.12846690	     48.93712542	     -5.17075490	     -6.09725280	     30.69351695	      0.53570293	    -19.99296250	      3.49260639	     -7.12846690	    -19.44106532	      3.55628786	     -3.48199018	    -52.81654924	     -5.05418836	    -10.70449634	     47.11510663	    109.09195821	    -47.99897801	     -9.30044501	     -4.83278124	     59.84997596	    111.60868333
      1.23000000	    -19.02577240	     -1.53259128	      2.49291034	     -0.34596462	      0.98668468	     -0.61048305	     49.50371246	     -4.46919533	     -4.50798165	     40.09936309	      0.69986591	     -5.00789126	     -8.99340423	     -7.21158843	     51.39312969	     -5.66506583	     -6.71197395	     38.81563300	      0.67746060	     -6.63503263	      3.76265581	     -7.21158843	    -20.43771515	      3.43407588	     -3.38869592	    -51.97024990	     -4.72556601	    -10.02031687	     46.94219189	    109.03782214	    -46.88845374	     -9.11453027	     -4.88804210	     59.83515049	    111.76547959
      1.24000000	    -19.10077893	     -1.60205240	      2.37657282	     -0.34049352	      0.95964053	     -0.61025701	     52.06438605	     -4.56745719	     -4.43665499	     46.46011335	      0.81088195	      3.90404263	     -9.20460040	     -7.25385498	     54.43512551	     -6.44624830	     -7.24340692	     46.61828505	      0.81364257	      3.89254043	      4.42967412	     -7.25385498	    -21.42085417	      3.40082619	     -3.09434814	    -50.63859401	     -4.58824932	     -8.59331193	     46.57468686	    106.18565441	    -45.37522529	     -9.20511076	     -4.14571071	     59.92349285	    108.81416364
      1.25000000	    -19.58081521	     -1.63026144	      2.24300253	     -0.33671674	      0.93357271	     -0.61021751	     54.80953889	     -4.79559302	     -4.70281931	     51.59612340	      0.90052223	     11.19685269	     -9.25797951	     -7.28190169	     57.79116406	     -7.05178045	     -7.51069324	     52.30036105	      0.91281350	      9.10285822	      3.61684408	     -7.28190169	    -22.27097996	      3.32567219	     -2.84527722	    -48.77775642	     -4.49095638	     -7.77324274	     45.81161840	    109.45210101	    -43.36691837	     -9.09492188	     -4.40539763	     59.22770819	    112.10228595
      1.26000000	    -20.71682164	     -1.62877289	      2.08371035	     -0.33395333	      0.90844550	     -0.61042212	     57.98673205	     -5.06902169	     -5.16042666	     55.90149891	      0.97566521	     16.81758147	     -9.91628270	     -7.29181936	     61.42392075	     -7.49978753	     -7.80427241	     56.66735683	      0.98903196	     12.77057290	      2.55064722	     -7.29181936	    -22.58430789	      3.26043864	     -2.51539988	    -46.43851235	     -4.50851435	     -6.46431243	     44.86241623	    109.04842199	    -40.74249868	     -9.23362358	     -3.68789158	     58.24444921	    111.65087744
